<?xml version="1.0" encoding="utf-8"?>
<!-- Generator: Adobe Illustrator 16.0.0, SVG Export Plug-In . SVG Version: 6.00 Build 0)  -->
<!DOCTYPE svg PUBLIC "-//W3C//DTD SVG 1.1//EN" "http://www.w3.org/Graphics/SVG/1.1/DTD/svg11.dtd">
<svg version="1.1" id="Layer_1" xmlns="http://www.w3.org/2000/svg" xmlns:xlink="http://www.w3.org/1999/xlink" x="0px" y="0px"
	 width="254px" height="254px" viewBox="0 0 254 254" enable-background="new 0 0 254 254" xml:space="preserve">
<g>
	<g>
		<path fill="#321C10" d="M748.39,122.454c-31.248,0-64.35-15.026-75.358-34.21c-0.136-0.237-0.251-0.46-0.363-0.693
			c-0.605-1.298-3.457-7.792-3.559-15.203c-0.013-0.13-0.019-0.262-0.019-0.393V59.996c0-0.14,0.007-0.278,0.021-0.415
			c0.115-4.376,1.228-8.248,3.307-11.513c2.89-4.532,8.942-9.932,21.374-9.932c0.651,0,1.322,0.014,2.02,0.045
			c1.878,0.081,3.748,0.122,5.55,0.122c20.16,0,25.919-5.23,27.459-7.479c3.728-5.44,18.441-20.973,36.544-20.973
			c8.367,0,15.84,3.23,22.21,9.602c8.995,8.994,19.49,26.145,19.505,44.915c0.001,0.029,0.001,11.827,0.001,11.827
			c0,0.076-0.002,0.152-0.006,0.228c-0.1,11.461-4.332,21.698-12.249,29.614C784.086,116.777,768.028,122.454,748.39,122.454z"/>
	</g>
	<path fill="#FFEBD9" d="M786.075,21.038c-5.734-5.736-12.421-8.645-19.869-8.645c-15.569,0-29.725,13.311-34.142,19.759
		c-2.991,4.366-10.942,9.57-31.836,9.57c-1.881,0-3.852-0.042-5.912-0.131c-0.652-0.028-1.28-0.042-1.891-0.042
		c-10.879,0-16.023,4.491-18.425,8.258c-1.99,3.126-2.703,6.641-2.748,10.022l-0.013-0.023v12.327l0.018,0.021
		c0.008,6.929,2.779,13.197,3.243,14.194c0.074,0.153,0.149,0.301,0.233,0.447c10.658,18.57,43.149,33.117,73.973,33.117
		c19.085,0,34.592-5.419,44.843-15.671c8.108-8.106,11.333-17.86,11.376-27.73l0.005-0.007v-12.1l-0.001,0.003
		C804.948,47.839,796.006,30.966,786.075,21.038z"/>
	<path fill="#FFF8F2" d="M748.707,107.953c-30.823,0-63.314-14.547-73.973-33.117c-0.084-0.146-0.159-0.296-0.233-0.447
		c-0.698-1.499-6.654-14.916-0.5-24.581c2.401-3.767,7.546-8.258,18.425-8.258c0.61,0,1.238,0.014,1.891,0.042
		c2.061,0.089,4.031,0.131,5.912,0.131c20.894,0,28.845-5.204,31.836-9.57c4.417-6.448,18.572-19.759,34.142-19.759
		c7.448,0,14.135,2.909,19.869,8.645c15.876,15.873,29.229,49.493,7.475,71.245C783.299,102.533,767.792,107.953,748.707,107.953z"
		/>
	<path fill="#93282E" d="M679.92,71.859c0,0-11.869-25.417,14.139-24.293c25.97,1.121,37.957-4.759,42.939-12.034
		c4.984-7.276,27.344-27.772,44.851-10.268c12.665,12.666,27.365,42.899,7.475,62.789C762.178,115.2,695.367,98.77,679.92,71.859z"
		/>
	
		<line fill="none" stroke="#321C10" stroke-linecap="round" stroke-miterlimit="10" x1="694.816" y1="98.265" x2="694.816" y2="106.562"/>
	
		<line fill="none" stroke="#321C10" stroke-linecap="round" stroke-miterlimit="10" x1="702.227" y1="101.974" x2="702.227" y2="110.271"/>
	
		<line fill="none" stroke="#321C10" stroke-linecap="round" stroke-miterlimit="10" x1="709.637" y1="105.683" x2="709.637" y2="113.98"/>
	
		<line fill="none" stroke="#321C10" stroke-linecap="round" stroke-miterlimit="10" x1="717.047" y1="107.393" x2="717.047" y2="115.689"/>
	
		<line fill="none" stroke="#321C10" stroke-linecap="round" stroke-miterlimit="10" x1="724.457" y1="113.101" x2="724.457" y2="118.409"/>
	
		<line fill="none" stroke="#321C10" stroke-linecap="round" stroke-miterlimit="10" x1="731.867" y1="114.887" x2="731.867" y2="120.194"/>
	
		<line fill="none" stroke="#321C10" stroke-linecap="round" stroke-miterlimit="10" x1="739.277" y1="115.783" x2="739.277" y2="121.09"/>
	
		<line fill="none" stroke="#321C10" stroke-linecap="round" stroke-miterlimit="10" x1="746.687" y1="114.887" x2="746.687" y2="120.194"/>
	
		<line fill="none" stroke="#321C10" stroke-linecap="round" stroke-miterlimit="10" x1="754.097" y1="113.661" x2="754.097" y2="120.194"/>
	<g>
		
			<line fill="none" stroke="#492712" stroke-linecap="round" stroke-linejoin="round" stroke-miterlimit="10" x1="683.817" y1="64.479" x2="694.433" y2="53.632"/>
		
			<line fill="none" stroke="#492712" stroke-linecap="round" stroke-linejoin="round" stroke-miterlimit="10" x1="688.915" y1="73.948" x2="708.989" y2="53.436"/>
		
			<line fill="none" stroke="#492712" stroke-linecap="round" stroke-linejoin="round" stroke-miterlimit="10" x1="696.697" y1="80.676" x2="726.762" y2="49.954"/>
		
			<line fill="none" stroke="#492712" stroke-linecap="round" stroke-linejoin="round" stroke-miterlimit="10" x1="705.802" y1="86.05" x2="766.095" y2="24.442"/>
		
			<line fill="none" stroke="#492712" stroke-linecap="round" stroke-linejoin="round" stroke-miterlimit="10" x1="715.992" y1="90.316" x2="776.472" y2="28.52"/>
		
			<line fill="none" stroke="#492712" stroke-linecap="round" stroke-linejoin="round" stroke-miterlimit="10" x1="727.202" y1="93.541" x2="783.226" y2="36.297"/>
		
			<line fill="none" stroke="#492712" stroke-linecap="round" stroke-linejoin="round" stroke-miterlimit="10" x1="739.567" y1="95.585" x2="788.543" y2="45.542"/>
		
			<line fill="none" stroke="#492712" stroke-linecap="round" stroke-linejoin="round" stroke-miterlimit="10" x1="753.622" y1="95.904" x2="792.254" y2="56.429"/>
		
			<line fill="none" stroke="#492712" stroke-linecap="round" stroke-linejoin="round" stroke-miterlimit="10" x1="792.467" y1="70.89" x2="771.508" y2="92.306"/>
	</g>
</g>
<text transform="matrix(0.9999 0 0 1 662.9414 155.874)" fill="#F2D897" font-family="'Prelo-BoldItalic'" font-size="29.0981" letter-spacing="6">PICANHA</text>
<text transform="matrix(0.9999 0 0 1 705.3994 182.0225)" fill="#F2D897" font-family="'Prelo-Light'" font-size="23.4162" letter-spacing="4">LABS</text>
<g>
	<g>
		<path fill="#F2D897" d="M751.094,202.55l-0.035-0.018l0.102-0.224l-0.02-0.036l-0.035-0.018l-5.638,5.13
			c0,0-0.069,0.065-0.144,0.022l4.978-5.62l-0.017-0.041l-0.041-0.017l0.105-0.22l-0.017-0.04l-0.042-0.018l-5.651,5.109
			c0,0-0.026,0.021-0.061,0.032c-0.021,0.007-0.044,0.01-0.069,0l4.986-5.606l-0.018-0.037l-0.04-0.021l0.106-0.22l-0.019-0.038
			l-0.04-0.019l-5.666,5.101c0,0-0.069,0.063-0.143,0.02l5.011-5.593l-0.02-0.036l-0.036-0.019l0.103-0.224l-0.019-0.036
			l-0.036-0.017c0,0-6.194,5.437-7.096,6.242c-0.085,0.075-0.094,0.168-0.043,0.265c0.001,0.002,0.002,0.005,0.003,0.007
			c-0.002,0.002-0.005,0.004-0.007,0.006c-0.085,0.075-0.093,0.168-0.043,0.267c0.12,0.234,0.297,0.761,0.198,1.505
			c-0.05,0.237-0.127,0.493-0.243,0.765c-0.536,1.362-12.548,11.83-15.192,14.054c-0.479,0.403-0.937,1.094-1.046,1.958
			c-0.088,0.397-0.103,0.838-0.008,1.309c1.344,0.258,2.432-0.369,2.979-1.031c2.202-2.662,12.573-14.759,13.931-15.306
			c1.29-0.558,2.212-0.281,2.547-0.112c0.099,0.05,0.19,0.041,0.267-0.046c0.799-0.907,6.185-7.145,6.185-7.145L751.094,202.55z"/>
		<path fill="#F2D897" d="M750.054,223.324c-0.033-0.044-0.069-0.082-0.103-0.123c-0.043-0.054-0.085-0.108-0.13-0.156
			c-0.08-0.086-0.163-0.163-0.245-0.233c-1.381-1.147-6.836-6.025-11.723-10.78c-4.542-5.257-10.245-10.32-11.055-11.241
			c-0.375-0.428-0.754-0.555-1.022-0.417c-0.041-0.003-0.08-0.002-0.119,0.003c-0.001,0-0.003,0.001-0.005,0.001
			c-0.457,0.061-0.71,0.729-0.374,1.901c0.857,2.99,6.409,9.316,10.808,10.993c0.093,0.05,0.138,0.064,0.221,0.117
			c1.757,1.122,8.852,8.902,10.995,11.469c0.559,0.668,1.666,1.297,3.027,1.028c0.002-0.002,0.002-0.005,0.002-0.006
			c0.092-0.011,0.185-0.024,0.279-0.044c0.003-0.01,0.002-0.018,0.004-0.027l0,0c0.001-0.004,0.001-0.006,0.001-0.01
			c0.153-0.839-0.03-1.579-0.353-2.151c-0.003-0.004-0.006-0.007-0.008-0.011C750.192,223.526,750.124,223.422,750.054,223.324z"/>
	</g>
</g>
<path fill="#B79051" d="M816.934,81.447v2.806l-0.005,0.008c-0.015,3.328-0.34,6.644-1.02,9.905
	c12.978,16.376,20.728,37.083,20.728,59.602c0,53.037-42.991,96.035-96.029,96.035c-53.036,0-96.028-42.998-96.028-96.035
	c0-21.827,7.282-41.95,19.546-58.079c-0.479-1.043-2.285-5.22-3.207-10.519c-15.863,18.414-25.455,42.385-25.455,68.598
	c0,58.071,47.075,105.15,105.145,105.15c58.071,0,105.146-47.079,105.146-105.15C845.753,125.751,834.796,100.294,816.934,81.447z"
	/>
<g>
	<g>
		<path fill="#321C10" d="M134.782,113.799c-31.248,0-64.35-15.026-75.358-34.21c-0.136-0.237-0.251-0.46-0.363-0.693
			c-0.605-1.298-3.457-7.792-3.559-15.203c-0.013-0.13-0.019-0.262-0.019-0.393V51.341c0-0.14,0.007-0.278,0.021-0.415
			c0.115-4.376,1.228-8.248,3.307-11.513c2.89-4.532,8.942-9.932,21.374-9.932c0.651,0,1.322,0.014,2.02,0.045
			c1.878,0.081,3.748,0.122,5.55,0.122c20.16,0,25.919-5.23,27.459-7.479c3.728-5.441,18.441-20.973,36.544-20.973
			c8.367,0,15.84,3.23,22.21,9.602c8.995,8.994,19.49,26.145,19.505,44.915c0.001,0.029,0.001,11.827,0.001,11.827
			c0,0.076-0.002,0.152-0.006,0.228c-0.1,11.461-4.332,21.698-12.249,29.614C170.479,108.122,154.421,113.799,134.782,113.799z"/>
	</g>
	<path fill="#FFEBD9" d="M172.468,12.382c-5.734-5.736-12.421-8.645-19.869-8.645c-15.569,0-29.725,13.311-34.142,19.759
		c-2.991,4.366-10.942,9.57-31.836,9.57c-1.881,0-3.852-0.042-5.912-0.131c-0.652-0.028-1.28-0.042-1.891-0.042
		c-10.879,0-16.023,4.491-18.425,8.258c-1.99,3.126-2.703,6.641-2.748,10.022l-0.013-0.023v12.327l0.018,0.021
		c0.008,6.929,2.779,13.197,3.243,14.194c0.074,0.153,0.149,0.301,0.233,0.447c10.658,18.57,43.149,33.117,73.973,33.117
		c19.085,0,34.592-5.419,44.843-15.671c8.108-8.106,11.333-17.86,11.376-27.73l0.005-0.007v-12.1l-0.001,0.003
		C191.341,39.184,182.398,22.311,172.468,12.382z"/>
	<path fill="#FFF8F2" d="M135.1,99.298c-30.823,0-63.314-14.547-73.973-33.117c-0.084-0.146-0.159-0.296-0.233-0.447
		c-0.698-1.499-6.654-14.916-0.5-24.581c2.401-3.767,7.546-8.258,18.425-8.258c0.61,0,1.238,0.014,1.891,0.042
		c2.061,0.089,4.031,0.131,5.912,0.131c20.894,0,28.845-5.204,31.836-9.57c4.417-6.448,18.572-19.759,34.142-19.759
		c7.448,0,14.135,2.909,19.869,8.645c15.876,15.873,29.229,49.493,7.475,71.245C169.691,93.878,154.185,99.298,135.1,99.298z"/>
	<path fill="#93282E" d="M66.313,63.204c0,0-11.869-25.417,14.139-24.293c25.97,1.121,37.957-4.759,42.939-12.034
		c4.984-7.277,27.344-27.772,44.851-10.268c12.665,12.666,27.365,42.899,7.475,62.789C148.57,106.545,81.76,90.114,66.313,63.204z"
		/>
	
		<line fill="none" stroke="#321C10" stroke-linecap="round" stroke-miterlimit="10" x1="81.209" y1="89.609" x2="81.209" y2="97.906"/>
	
		<line fill="none" stroke="#321C10" stroke-linecap="round" stroke-miterlimit="10" x1="88.619" y1="93.318" x2="88.619" y2="101.615"/>
	
		<line fill="none" stroke="#321C10" stroke-linecap="round" stroke-miterlimit="10" x1="96.029" y1="97.027" x2="96.029" y2="105.325"/>
	
		<line fill="none" stroke="#321C10" stroke-linecap="round" stroke-miterlimit="10" x1="103.439" y1="98.737" x2="103.439" y2="107.034"/>
	
		<line fill="none" stroke="#321C10" stroke-linecap="round" stroke-miterlimit="10" x1="110.85" y1="104.445" x2="110.85" y2="109.754"/>
	
		<line fill="none" stroke="#321C10" stroke-linecap="round" stroke-miterlimit="10" x1="118.26" y1="106.231" x2="118.26" y2="111.539"/>
	
		<line fill="none" stroke="#321C10" stroke-linecap="round" stroke-miterlimit="10" x1="125.67" y1="107.128" x2="125.67" y2="112.435"/>
	
		<line fill="none" stroke="#321C10" stroke-linecap="round" stroke-miterlimit="10" x1="133.079" y1="106.231" x2="133.079" y2="111.539"/>
	
		<line fill="none" stroke="#321C10" stroke-linecap="round" stroke-miterlimit="10" x1="140.489" y1="105.006" x2="140.489" y2="111.539"/>
	<g>
		
			<line fill="none" stroke="#492712" stroke-linecap="round" stroke-linejoin="round" stroke-miterlimit="10" x1="70.21" y1="55.824" x2="80.825" y2="44.977"/>
		
			<line fill="none" stroke="#492712" stroke-linecap="round" stroke-linejoin="round" stroke-miterlimit="10" x1="75.308" y1="65.293" x2="95.382" y2="44.78"/>
		
			<line fill="none" stroke="#492712" stroke-linecap="round" stroke-linejoin="round" stroke-miterlimit="10" x1="83.09" y1="72.021" x2="113.154" y2="41.299"/>
		
			<line fill="none" stroke="#492712" stroke-linecap="round" stroke-linejoin="round" stroke-miterlimit="10" x1="92.194" y1="77.395" x2="152.487" y2="15.787"/>
		
			<line fill="none" stroke="#492712" stroke-linecap="round" stroke-linejoin="round" stroke-miterlimit="10" x1="102.385" y1="81.661" x2="162.864" y2="19.864"/>
		
			<line fill="none" stroke="#492712" stroke-linecap="round" stroke-linejoin="round" stroke-miterlimit="10" x1="113.595" y1="84.886" x2="169.618" y2="27.642"/>
		
			<line fill="none" stroke="#492712" stroke-linecap="round" stroke-linejoin="round" stroke-miterlimit="10" x1="125.96" y1="86.93" x2="174.936" y2="36.887"/>
		
			<line fill="none" stroke="#492712" stroke-linecap="round" stroke-linejoin="round" stroke-miterlimit="10" x1="140.015" y1="87.249" x2="178.646" y2="47.773"/>
		
			<line fill="none" stroke="#492712" stroke-linecap="round" stroke-linejoin="round" stroke-miterlimit="10" x1="178.859" y1="62.234" x2="157.9" y2="83.65"/>
	</g>
</g>
<text transform="matrix(0.9999 0 0 1 49.334 147.2188)" fill="#482715" font-family="'Prelo-BoldItalic'" font-size="29.0981" letter-spacing="6">PICANHA</text>
<text transform="matrix(0.9999 0 0 1 91.792 173.3672)" fill="#482715" font-family="'Prelo-Light'" font-size="23.4162" letter-spacing="4">LABS</text>
<g>
	<g>
		<path fill="#482715" d="M137.486,193.895l-0.035-0.018l0.102-0.224l-0.02-0.036l-0.035-0.018l-5.638,5.13
			c0,0-0.069,0.065-0.144,0.022l4.978-5.62l-0.017-0.041l-0.041-0.017l0.105-0.22l-0.017-0.04l-0.042-0.018l-5.651,5.109
			c0,0-0.026,0.021-0.061,0.032c-0.021,0.007-0.044,0.01-0.069,0l4.986-5.606l-0.018-0.037l-0.04-0.021l0.106-0.22l-0.019-0.038
			l-0.04-0.019l-5.666,5.101c0,0-0.069,0.063-0.143,0.02l5.011-5.593l-0.02-0.036l-0.036-0.019l0.103-0.224l-0.019-0.036
			l-0.036-0.017c0,0-6.194,5.437-7.096,6.242c-0.085,0.075-0.094,0.168-0.043,0.265c0.001,0.002,0.002,0.005,0.003,0.007
			c-0.002,0.002-0.005,0.004-0.007,0.006c-0.085,0.075-0.093,0.168-0.043,0.267c0.12,0.234,0.297,0.761,0.198,1.505
			c-0.05,0.237-0.127,0.493-0.243,0.765c-0.536,1.362-12.548,11.83-15.192,14.054c-0.479,0.403-0.937,1.094-1.046,1.958
			c-0.088,0.397-0.103,0.838-0.008,1.309c1.344,0.258,2.432-0.369,2.979-1.031c2.202-2.662,12.573-14.759,13.931-15.306
			c1.29-0.558,2.212-0.281,2.547-0.112c0.099,0.05,0.19,0.041,0.267-0.046c0.799-0.907,6.185-7.145,6.185-7.145L137.486,193.895z"/>
		<path fill="#482715" d="M136.446,214.669c-0.033-0.044-0.069-0.082-0.103-0.123c-0.043-0.054-0.085-0.108-0.13-0.156
			c-0.08-0.086-0.163-0.163-0.245-0.233c-1.381-1.147-6.836-6.025-11.723-10.78c-4.542-5.257-10.245-10.32-11.055-11.241
			c-0.375-0.428-0.754-0.555-1.022-0.417c-0.041-0.003-0.08-0.002-0.119,0.003c-0.001,0-0.003,0.001-0.005,0.001
			c-0.457,0.061-0.71,0.729-0.374,1.901c0.857,2.99,6.409,9.316,10.808,10.993c0.093,0.05,0.138,0.064,0.221,0.117
			c1.757,1.122,8.852,8.902,10.995,11.469c0.559,0.668,1.666,1.297,3.027,1.028c0.002-0.002,0.002-0.005,0.002-0.006
			c0.092-0.011,0.185-0.024,0.279-0.044c0.003-0.01,0.002-0.018,0.004-0.027l0,0c0.001-0.004,0.001-0.006,0.001-0.01
			c0.153-0.839-0.03-1.579-0.353-2.151c-0.003-0.004-0.006-0.007-0.008-0.011C136.585,214.871,136.517,214.767,136.446,214.669z"/>
	</g>
</g>
<path fill="#B79051" d="M203.326,72.792v2.806l-0.005,0.008c-0.015,3.328-0.34,6.644-1.02,9.905
	c12.978,16.376,20.728,37.083,20.728,59.602c0,53.037-42.991,96.035-96.029,96.035c-53.036,0-96.028-42.998-96.028-96.035
	c0-21.827,7.282-41.95,19.546-58.079c-0.479-1.043-2.285-5.22-3.207-10.519c-15.863,18.414-25.455,42.385-25.455,68.598
	c0,58.071,47.075,105.15,105.145,105.15c58.071,0,105.146-47.079,105.146-105.15C232.146,117.096,221.188,91.639,203.326,72.792z"/>
</svg>
